<?xml version="1.0" standalone="no"?>
<!DOCTYPE svg PUBLIC "-//W3C//DTD SVG 20010904//EN"
 "http://www.w3.org/TR/2001/REC-SVG-20010904/DTD/svg10.dtd">
<svg version="1.0" xmlns="http://www.w3.org/2000/svg"
 width="700.000000pt" height="700.000000pt" viewBox="0 0 700.000000 700.000000"
 preserveAspectRatio="xMidYMid meet">
<metadata>
Created by potrace 1.11, written by Peter Selinger 2001-2013
</metadata>
<g transform="translate(0.000000,700.000000) scale(0.100000,-0.100000)"
fill="#000000" stroke="none">
<path d="M3830 5946 c-138 -23 -234 -111 -305 -276 -20 -47 -40 -89 -44 -93
-11 -11 -112 -34 -131 -30 -8 2 -26 20 -40 40 -40 60 -127 138 -185 167 -49
25 -62 27 -177 28 -216 0 -328 -36 -443 -144 -77 -71 -101 -108 -136 -208
l-27 -75 -38 -1 c-22 -1 -133 -5 -249 -9 -259 -10 -520 -10 -600 -1 -110 13
-183 58 -355 221 -156 148 -252 206 -340 207 -107 1 -177 -66 -232 -222 -11
-30 -22 -66 -24 -80 -3 -14 -9 -41 -14 -60 -4 -19 -12 -60 -15 -90 -4 -30 -9
-62 -10 -71 -5 -24 -14 -107 -20 -169 -3 -30 -7 -80 -10 -110 -2 -30 -7 -91
-10 -135 -3 -44 -7 -111 -10 -150 -3 -38 -7 -106 -10 -150 -3 -44 -8 -118 -11
-165 -3 -47 -7 -110 -9 -140 -2 -30 -6 -102 -10 -160 -3 -58 -8 -123 -10 -145
-2 -22 -6 -103 -9 -180 -4 -77 -9 -171 -11 -210 -3 -38 -7 -126 -10 -195 -3
-69 -8 -156 -10 -195 -7 -115 -14 -292 -30 -755 -11 -310 -14 -422 -20 -805
-4 -214 -8 -424 -9 -465 l-2 -75 60 1 c34 1 68 2 76 3 13 1 15 25 16 154 2
210 16 1164 19 1262 10 301 20 540 30 725 4 74 9 162 10 195 2 33 6 107 10
165 3 58 8 137 11 175 2 39 6 106 9 150 8 114 13 205 20 320 3 55 8 125 10
155 3 30 7 100 10 155 10 179 16 274 30 435 26 313 33 369 60 475 42 162 73
215 126 215 51 0 118 -47 283 -203 179 -169 221 -194 361 -213 28 -4 244 -8
480 -8 l430 -1 1 -35 c0 -19 -3 -57 -7 -85 -3 -27 -10 -81 -13 -118 -4 -37 -9
-76 -11 -85 -1 -9 -6 -53 -10 -97 -4 -44 -8 -91 -10 -105 -2 -14 -6 -54 -9
-90 -4 -36 -9 -85 -12 -110 -2 -25 -7 -70 -9 -100 -5 -65 -16 -183 -21 -225
-1 -16 -6 -68 -9 -115 -4 -47 -7 -86 -8 -86 -1 -1 -27 -4 -57 -7 -143 -15
-250 -98 -250 -193 0 -44 38 -110 79 -138 39 -27 148 -66 186 -66 20 0 20 -4
14 -84 -11 -142 -75 -296 -146 -355 -66 -54 -179 -72 -279 -42 -91 26 -186
118 -240 231 -30 62 -45 82 -64 87 -87 23 -115 -38 -65 -145 94 -201 267 -324
465 -327 144 -3 258 56 346 177 59 82 62 82 97 29 14 -22 59 -74 99 -118 l73
-78 0 -937 c0 -516 2 -939 5 -939 23 -5 120 -6 121 -1 8 48 10 247 12 961 2
659 6 846 15 849 7 2 45 -3 85 -12 436 -95 788 35 941 349 57 117 79 220 80
370 1 118 -8 282 -18 345 -2 14 -7 52 -10 85 -4 33 -8 71 -11 85 -2 14 -9 63
-15 110 -7 47 -13 96 -15 110 -2 14 -6 39 -9 55 -3 17 -14 89 -26 160 -11 72
-24 150 -30 175 -5 25 -12 59 -15 75 -3 17 -7 44 -10 60 -26 151 -80 382 -131
557 -9 30 61 54 211 72 131 16 176 19 330 20 342 4 404 -9 845 -179 124 -48
277 -104 340 -125 204 -68 430 -94 823 -94 132 0 197 -3 198 -10 1 -6 3 -31 5
-56 6 -68 22 -106 62 -150 53 -56 91 -68 213 -71 57 -1 107 -3 111 -5 7 -4
-37 -182 -70 -281 -45 -137 -121 -261 -218 -356 -126 -124 -400 -263 -563
-285 -101 -14 -289 -6 -366 16 -38 11 -95 27 -125 36 -82 24 -107 21 -124 -12
-23 -44 -11 -67 52 -100 178 -92 464 -116 691 -58 57 14 106 25 108 22 8 -8
-108 -124 -179 -178 -41 -31 -161 -111 -268 -178 -372 -233 -487 -347 -558
-555 -11 -33 -23 -76 -27 -95 -4 -19 -9 -414 -12 -877 l-5 -841 60 1 c33 1 63
4 65 7 3 3 8 77 11 165 6 144 7 339 3 1085 -2 477 21 571 182 730 84 84 208
174 386 280 177 106 316 210 391 293 61 67 131 176 150 231 13 37 28 53 97
102 148 106 225 197 312 369 92 180 145 386 171 655 13 129 9 164 -20 214 -58
99 -186 133 -341 91 -167 -45 -379 -58 -680 -42 -309 17 -435 47 -785 187
-107 43 -247 97 -310 119 -138 50 -163 67 -215 138 -47 65 -165 188 -216 226
-74 55 -196 75 -329 53z m212 -149 c37 -16 190 -155 183 -167 -2 -4 -73 -7
-157 -7 -84 -1 -213 -4 -286 -8 l-133 -7 13 28 c22 52 71 114 107 136 73 46
197 57 273 25z m-996 -167 c142 -47 242 -234 323 -605 28 -130 73 -363 85
-445 3 -19 10 -62 16 -95 6 -33 18 -103 26 -155 8 -52 17 -106 19 -120 4 -20
24 -170 40 -290 9 -69 18 -215 19 -295 3 -169 -23 -298 -82 -403 -26 -47 -130
-162 -145 -162 -5 0 -21 -8 -35 -19 -36 -24 -129 -58 -183 -66 -24 -3 -57 -9
-74 -11 -51 -10 -197 -6 -268 5 -253 42 -428 199 -455 409 -15 122 -5 462 24
762 3 36 7 88 9 115 6 72 15 184 20 225 2 19 7 64 10 100 3 36 8 81 10 100 3
19 7 62 10 95 7 82 13 141 20 186 8 60 14 110 20 159 3 25 12 81 20 125 8 44
17 95 20 114 16 95 90 187 187 235 99 48 274 65 364 36z m3582 -482 c7 -7 12
-24 12 -38 0 -14 -5 -31 -12 -38 -19 -19 -66 -15 -78 7 -23 44 -5 81 40 81 14
0 31 -5 38 -12z m-4557 -1317 c23 -19 23 -21 9 -47 -28 -50 -90 -39 -90 17 0
46 42 62 81 30z"/>
<path d="M4431 4964 c-79 -40 -132 -115 -133 -192 -3 -113 115 -228 226 -221
56 4 105 25 144 62 45 43 64 81 68 139 12 171 -154 287 -305 212z m64 -170
c28 -30 33 -79 12 -108 -7 -9 -31 -20 -52 -23 -33 -4 -44 -1 -63 20 -29 31
-35 63 -17 97 25 48 82 55 120 14z"/>
<path d="M1385 4480 c-86 -41 -130 -110 -129 -201 2 -85 49 -155 129 -193 87
-42 167 -25 242 51 54 55 69 93 65 160 -8 146 -176 246 -307 183z m57 -107
c22 -20 24 -66 3 -83 -8 -7 -26 -12 -40 -12 -34 0 -55 19 -55 50 0 53 54 80
92 45z"/>
</g>
</svg>
