<?xml version="1.0" encoding="UTF-8" standalone="no"?>
<!-- Created with Inkscape (http://www.inkscape.org/) -->

<svg
   xmlns:dc="http://purl.org/dc/elements/1.1/"
   xmlns:cc="http://creativecommons.org/ns#"
   xmlns:rdf="http://www.w3.org/1999/02/22-rdf-syntax-ns#"
   xmlns:svg="http://www.w3.org/2000/svg"
   xmlns="http://www.w3.org/2000/svg"
   xmlns:sodipodi="http://sodipodi.sourceforge.net/DTD/sodipodi-0.dtd"
   xmlns:inkscape="http://www.inkscape.org/namespaces/inkscape"
   width="64"
   height="64"
   viewBox="0 0 63.999999 63.999999"
   id="svg2"
   version="1.1"
   inkscape:version="0.91 r13725"
   sodipodi:docname="logo.svg">
  <defs
     id="defs4" />
  <sodipodi:namedview
     id="base"
     pagecolor="#ffffff"
     bordercolor="#666666"
     borderopacity="1.0"
     inkscape:pageopacity="0.0"
     inkscape:pageshadow="2"
     inkscape:zoom="8.375"
     inkscape:cx="32"
     inkscape:cy="32"
     inkscape:document-units="px"
     inkscape:current-layer="layer1"
     showgrid="false"
     units="px"
     inkscape:window-width="1366"
     inkscape:window-height="710"
     inkscape:window-x="0"
     inkscape:window-y="32"
     inkscape:window-maximized="1" />
  <metadata
     id="metadata7">
    <rdf:RDF>
      <cc:Work
         rdf:about="">
        <dc:format>image/svg+xml</dc:format>
        <dc:type
           rdf:resource="http://purl.org/dc/dcmitype/StillImage" />
        <dc:title></dc:title>
      </cc:Work>
    </rdf:RDF>
  </metadata>
  <g
     inkscape:label="Layer 1"
     inkscape:groupmode="layer"
     id="layer1"
     transform="translate(0,-988.3622)">
    <path
       style="fill:#000000"
       d="m 2.427975,1042.2958 c 0.1228117,-11.3659 0.567909,-21.7401 1.4791928,-34.4768 0.3852671,-5.3847 0.9655934,-7.4689 2.2493059,-8.07799 1.0570573,-0.50159 2.098185,-0.01 4.1342533,1.95289 1.903697,1.8349 2.142078,1.9159 5.565988,1.8893 1.309329,-0.01 3.101346,-0.058 3.982253,-0.1054 l 1.601651,-0.087 0.167095,-0.5623 c 0.267171,-0.8991 0.565284,-1.3713 1.298665,-2.0573 0.984742,-0.92114 1.993521,-1.26756 3.76563,-1.29321 1.124318,-0.0165 1.504291,0.0316 1.897801,0.2397 0.607808,0.32111 1.505043,1.16051 1.760691,1.64721 0.18353,0.3493 0.21851,0.3583 0.876341,0.2235 0.684779,-0.1403 0.685381,-0.1409 1.012931,-1.0542 0.388968,-1.08456 1.042865,-1.85683 1.946952,-2.29944 0.898768,-0.43998 2.639875,-0.44525 3.470375,-0.0105 0.633207,0.33145 1.764392,1.46104 2.460189,2.45677 0.42003,0.6011 0.568534,0.6979 1.565768,1.0207 0.605951,0.1962 2.003954,0.7317 3.106679,1.1901 2.979986,1.2387 4.097708,1.5229 6.687892,1.7005 2.874774,0.197 5.451419,0.074 6.528738,-0.3133 1.526019,-0.5477 3.012538,-0.1158 3.47916,1.0107 0.148158,0.3576 0.149452,0.7467 0.0068,2.082 -0.466803,4.3734 -2.006661,7.5192 -4.416481,9.0226 -0.433778,0.2706 -0.789503,0.5732 -0.790481,0.6724 -0.0038,0.4153 -0.790457,1.6876 -1.507848,2.4397 -0.864059,0.9059 -2.052637,1.7539 -4.322709,3.084 -0.910343,0.5335 -1.953772,1.2924 -2.549276,1.8544 -1.795838,1.6946 -1.962084,2.5241 -1.823718,9.1 0.05287,2.5128 0.05137,5.6284 -0.003,6.9235 l -0.09945,2.3546 -0.5842,0 -0.584199,0 0.01429,-7.7669 c 0.01376,-7.484 0.02497,-7.7988 0.307898,-8.6405 0.161492,-0.4805 0.457349,-1.153 0.657462,-1.4945 0.551769,-0.9415 2.128826,-2.308 3.832651,-3.3209 2.327713,-1.3839 3.429265,-2.1564 4.192045,-2.9398 0.381928,-0.3923 0.665104,-0.7425 0.629273,-0.7783 -0.0358,-0.036 -0.424835,0.053 -0.864457,0.1985 -1.732112,0.5714 -4.189721,0.4757 -5.957776,-0.2321 -1.088962,-0.436 -1.277959,-0.6329 -1.062021,-1.1069 0.200278,-0.4395 0.452874,-0.4372 1.805833,0.017 0.868895,0.2917 1.36679,0.3661 2.498216,0.3731 1.705291,0.01 2.242108,-0.1257 4.154319,-1.0547 2.456595,-1.1934 3.777882,-2.7794 4.540542,-5.4501 0.187079,-0.6551 0.376272,-1.3826 0.420421,-1.6166 l 0.08026,-0.4256 -1.104312,0 c -0.89986,0 -1.176229,-0.05 -1.492739,-0.2861 -0.662689,-0.4944 -0.955116,-1.0034 -0.983275,-1.7114 l -0.02625,-0.66 -1.736511,0.039 c -2.255947,0.051 -5.238656,-0.1982 -6.656747,-0.5563 -0.618541,-0.1562 -2.358197,-0.779 -3.865894,-1.3842 -3.825062,-1.5352 -4.715888,-1.7427 -7.520934,-1.7521 -2.129714,-0.01 -4.758541,0.304 -5.277232,0.6246 -0.130897,0.081 -0.118126,0.2476 0.05505,0.7186 0.471932,1.2837 1.217181,5.0138 1.906059,9.5401 0.529446,3.4788 0.759388,6.1185 0.635831,7.2991 -0.432115,4.1295 -3.20634,6.3995 -7.511638,6.1463 -0.734523,-0.043 -1.63263,-0.1689 -1.995808,-0.2794 -0.36317,-0.1105 -0.693654,-0.1675 -0.734403,-0.1268 -0.04076,0.041 -0.03505,2.1686 0.01271,4.7286 0.04776,2.5599 0.03896,6.2833 -0.01948,8.2743 l -0.106303,3.6199 -0.582402,0 -0.582402,0 -0.0075,-8.6338 -0.0075,-8.6338 -0.793451,-0.7935 c -0.436395,-0.4364 -0.832388,-0.9161 -0.879981,-1.066 -0.124339,-0.3918 -0.285109,-0.3386 -0.621504,0.2057 -1.229388,1.9892 -3.687667,2.4375 -5.763748,1.0512 -0.832696,-0.5561 -1.460871,-1.356 -1.911143,-2.4336 -0.319578,-0.7648 -0.109529,-1.2409 0.519925,-1.1783 0.367163,0.037 0.472601,0.1309 0.618352,0.5541 0.777402,2.2571 3.175098,3.2769 4.86883,2.0709 0.614743,-0.4378 1.292324,-1.9753 1.354365,-3.0734 l 0.05272,-0.9326 -0.77901,-0.1743 c -0.920182,-0.206 -1.459623,-0.5916 -1.728863,-1.236 -0.341073,-0.8163 0.212817,-1.7009 1.309961,-2.0923 0.29506,-0.1052 0.734546,-0.194 0.976635,-0.1975 l 0.440163,-0.01 0.09802,-1.3706 c 0.133935,-1.8728 0.90383,-9.413 1.000431,-9.7978 l 0.07809,-0.3111 -4.332012,0.011 c -5.424825,0.014 -5.306248,0.047 -7.4247475,-2.0698 -1.5040123,-1.503 -2.3832262,-2.0517 -2.86987,-1.7913 -0.3548294,0.1899 -0.8043416,1.4085 -1.0596897,2.8728 -0.2409527,1.3817 -0.6168637,6.6436 -1.211292,16.9551 -0.3353799,5.8179 -0.4513549,9.1683 -0.5121628,14.7958 l -0.07861,7.275 -0.6837862,0 -0.6837862,0 0.00602,-0.5272 z m 26.77444,-17.2486 c 1.088285,-0.3379 1.978088,-0.9752 2.537341,-1.8175 1.252327,-1.8862 1.275055,-4.0813 0.1159,-11.1933 -1.150199,-7.057 -1.830149,-9.3554 -3.149203,-10.645 -0.614841,-0.6012 -1.394039,-0.7716 -2.744637,-0.6004 -1.708548,0.2167 -2.783362,1.0601 -3.133694,2.4593 -0.35953,1.4357 -0.889413,6.1027 -1.356712,11.9491 -0.492119,6.1569 -0.363358,7.2286 1.036713,8.6287 1.054161,1.0541 2.80318,1.6005 4.796484,1.4984 0.657206,-0.034 1.511217,-0.1594 1.897808,-0.2793 z m -10.182139,-7.1886 c 0.24973,-0.3009 -0.0015,-0.6911 -0.44491,-0.6911 -0.344187,0 -0.504092,0.3208 -0.354348,0.711 0.103498,0.2698 0.568474,0.2581 0.799258,-0.019 z m 41.68678,-12.0883 c 0.11068,-0.4409 -0.08275,-0.6618 -0.524663,-0.599 -0.599934,0.085 -0.5264,0.9608 0.08069,0.9608 0.262162,0 0.376573,-0.093 0.443969,-0.3618 z m -23.597123,-4.8138 c 0.869827,0.026 1.581502,0.01 1.581502,-0.038 0,-0.047 -0.363742,-0.4319 -0.808321,-0.8558 -0.683793,-0.65207 -0.914277,-0.78527 -1.496025,-0.86492 -0.803371,-0.10996 -1.583435,0.0684 -2.109436,0.48203 -0.368781,0.29009 -0.975017,1.29839 -0.853642,1.41969 0.03437,0.035 0.521925,0.01 1.083456,-0.063 0.561531,-0.069 1.732638,-0.1048 2.602466,-0.079 z m -24.453045,14.07 c -1.483224,-0.7105 -1.627734,-2.6061 -0.267916,-3.5145 0.924483,-0.6176 2.219214,-0.2975 2.826677,0.6988 0.993188,1.629 -0.835472,3.6412 -2.558761,2.8157 z m 0.702446,-2.1587 c 0.05099,-0.4385 -0.27564,-0.7473 -0.660915,-0.625 -0.660064,0.2095 -0.436831,1.1112 0.25519,1.0307 0.272542,-0.032 0.374046,-0.1332 0.405725,-0.4057 z m 26.860895,-2.4395 c -0.531492,-0.3612 -0.966481,-1.098 -0.966481,-1.6373 0,-0.6764 0.549415,-1.503 1.21242,-1.8239 2.319087,-1.1227 4.049837,2.1802 1.846439,3.5237 -0.635869,0.3876 -1.466399,0.3629 -2.092378,-0.062 z m 0.870279,-0.7867 c 0.357777,-0.1915 0.355762,-0.8597 -0.0038,-1.1849 -0.636524,-0.576 -1.550507,0.2501 -1.076702,0.9732 0.247376,0.3775 0.630198,0.4526 1.080282,0.2117 z"
       id="path4147"
       inkscape:connector-curvature="0" />
  </g>
</svg>
